<?xml version="1.0" encoding="utf-8"?>
<!-- Generator: Adobe Illustrator 21.1.0, SVG Export Plug-In . SVG Version: 6.00 Build 0)  -->
<svg version="1.1" id="Layer_1" xmlns="http://www.w3.org/2000/svg" xmlns:xlink="http://www.w3.org/1999/xlink" x="0px" y="0px"
	 viewBox="0 0 792 612" style="enable-background:new 0 0 792 612;" xml:space="preserve">
<style type="text/css">
	.st0{fill:#1C7DF9;}
	.st1{fill:#FFFFFF;}
</style>
<g>
	<path class="st0" d="M350.1,287.5c0-4.8,3.4-10.7,7.5-13.1l31.2-18c4.1-2.4,10.9-2.4,15.1,0l31.2,18c4.1,2.4,7.5,8.3,7.5,13.1v36.1
		c0,4.8-3.4,10.7-7.5,13.1l-31.2,18c-4.1,2.4-10.9,2.4-15.1,0l-31.2-18c-4.1-2.4-7.5-8.3-7.5-13.1V287.5z"/>
	<g>
		<g>
			<g>
				<path class="st1" d="M377.6,280c0-2.3,1.8-4.1,4.1-4.1h16.8c5.3,0,9.5,1.5,12.2,4.1c2.1,2.1,3.1,4.6,3.1,7.7v0.1
					c0,5.6-3.2,8.6-6.7,10.4c5.5,1.9,9.3,5,9.3,11.3v0.1c0,8.3-6.9,12.8-17.2,12.8h-17.4c-2.3,0-4.1-1.8-4.1-4.1L377.6,280
					L377.6,280z M396.8,295.5c5.3,0,8.8-2.1,8.8-6.3V289c0-3.7-2.9-5.9-8.2-5.9h-11.8v12.4H396.8z M399.2,315.2c5.6,0,9-2.2,9-6.4
					v-0.1c0-3.9-3.1-6.3-9.6-6.3h-13v12.8H399.2z"/>
			</g>
		</g>
		<path class="st1" d="M412.4,337.4h-32.6c-2,0-3.6-1.6-3.6-3.6s1.6-3.6,3.6-3.6h32.6c2,0,3.6,1.6,3.6,3.6
			C415.9,335.8,414.3,337.4,412.4,337.4z"/>
	</g>
</g>
</svg>
